<?xml version="1.0" encoding="UTF-8" standalone="no"?>
<!-- Created with Inkscape (http://www.inkscape.org/) -->

<svg
   width="1223.9597"
   height="1294.3486"
   viewBox="0 0 323.83933 342.46308"
   version="1.1"
   id="svg1"
   xml:space="preserve"
   xmlns:xlink="http://www.w3.org/1999/xlink"
   xmlns="http://www.w3.org/2000/svg"
   xmlns:svg="http://www.w3.org/2000/svg"><defs
     id="defs1"><linearGradient
       id="linearGradient1"><stop
         style="stop-color:#99f6e4;stop-opacity:1;"
         offset="0"
         id="stop1" /><stop
         style="stop-color:#3b82f6;stop-opacity:1;"
         offset="1"
         id="stop2" /></linearGradient><linearGradient
       xlink:href="#linearGradient1"
       id="linearGradient2"
       x1="-18.481106"
       y1="275.77164"
       x2="275.98221"
       y2="273.72675"
       gradientUnits="userSpaceOnUse" /></defs><g
     id="layer1"
     transform="translate(35.562795,35.610877)"
     style="display:inline;opacity:1;mix-blend-mode:normal"><path
       style="display:inline;opacity:1;mix-blend-mode:normal;fill:url(#linearGradient2);fill-opacity:1"
       d="m 3.086805,306.52241 c -6.1539603,-0.7041 -14.099418,-3.95723 -19.41908,-7.95081 -6.252457,-4.69385 -12.429679,-11.90499 -15.325682,-17.89084 -7.515401,-15.53385 -4.152445,-32.9911 9.828933,-51.02243 6.899275,-8.89777 16.6878637,-18.27482 24.3038206,-23.28202 l 2.3758973,-1.56206 v -3.97145 c 0,-11.0405 3.7691888,-23.35468 11.1023221,-36.27197 1.999463,-3.52204 4.149766,-6.84217 8.648016,-13.35277 1.079484,-1.5624 5.150748,-6.85418 7.368724,-9.57778 6.967283,-8.55559 20.073421,-22.14963 27.353245,-28.37153 11.302783,-9.66023 24.282053,-17.626306 33.898526,-20.805351 l 3.175,-1.049602 1.886258,-3.108982 C 106.24213,75.185999 115.76773,63.334603 129.01316,50.071227 147.41649,31.64296 164.39197,20.496473 180.49865,16.264681 l 2.25768,-0.593172 1.35714,-3.087691 c 3.19886,-7.2778742 7.47755,-13.6121753 14.87716,-22.0245574 12.47238,-14.1794736 26.69231,-23.4656926 39.29939,-25.6641846 3.81062,-0.664516 10.53891,-0.676301 13.94595,-0.02443 8.58186,1.641981 15.42584,5.501862 22.87542,12.901322 6.54963,6.50557 10.22595,12.5152814 12.19481,19.9349724 0.80971,3.05138304 0.94053,4.2661897 0.96878,8.9958334 0.0201,3.3599952 -0.15524,6.4200832 -0.45472,7.9375002 -1.27868,6.47882 -4.66678,14.372617 -9.00926,20.990278 -6.14561,9.365525 -17.15325,20.880762 -26.36519,27.580957 l -2.41456,1.756206 v 3.481565 c 0,10.570571 -6.56859,30.746353 -13.82927,42.47736 -10.2484,16.55823 -32.15473,40.18915 -48.41653,52.22815 -9.96024,7.3738 -19.08246,12.40403 -27.53614,15.18414 -8.31773,2.7354 -18.27981,3.69691 -25.60776,2.47159 -11.18027,-1.86947 -20.2392,-6.44415 -29.57266,-14.93393 -11.118317,-10.11328 -17.4911,-22.86367 -18.552491,-37.11901 l -0.223734,-3.00493 2.229709,-1.59635 c 5.860707,-4.19597 10.831148,-6.7645 15.974456,-8.25497 3.75386,-1.08783 5.2899,-1.17275 5.03564,-0.27841 -3.2308,11.36449 -2.97669,18.74998 0.90889,26.41612 2.21279,4.36579 7.52557,10.17298 12.33266,13.48034 12.23083,8.41503 27.27471,6.57783 45.58917,-5.56746 9.05536,-6.00508 18.96127,-14.70585 28.85555,-25.34502 15.82209,-17.01325 25.1569,-30.917333 29.6569,-44.173571 3.23086,-9.517563 3.08631,-19.029041 -0.39404,-25.929166 -3.62318,-7.183293 -11.14243,-14.244246 -18.37045,-17.250784 -4.21156,-1.751828 -4.36316,-1.626702 -2.14814,1.773039 1.78834,2.744863 6.26254,7.060224 9.47408,9.137762 2.70329,1.748746 3.93634,3.140314 5.77407,6.516372 1.64881,3.028986 2.62319,6.12738 3.07805,9.787798 0.36788,2.960474 0.14927,8.432501 -0.37049,9.273482 -0.38939,0.630047 -7.26522,-0.147287 -11.19234,-1.265331 -3.95945,-1.127245 -10.14909,-4.21406 -13.51143,-6.738239 -8.43219,-6.330214 -15.20157,-15.442532 -17.6492,-23.75771 -0.42834,-1.455209 -0.83063,-2.706889 -0.89396,-2.781513 -0.39185,-0.461745 -7.83484,3.563185 -13.11641,7.092936 -10.17328,6.798956 -23.32719,18.943136 -34.32784,31.692751 -5.31841,6.163968 -9.89525,12.071754 -9.5709,12.354113 0.14111,0.122837 1.6709,0.656111 3.39955,1.185054 7.89995,2.417277 14.86047,6.597223 22.22483,13.346507 11.33934,10.39227 17.81446,23.59613 18.27635,37.26856 l 0.10027,2.96812 -3.50585,2.4172 c -4.09417,2.82282 -9.43861,5.50996 -13.42748,6.75122 -2.86463,0.89142 -6.17362,1.53171 -6.17362,1.19461 0,-0.10175 0.41114,-1.72969 0.91363,-3.61764 2.13148,-8.00822 1.54348,-16.83409 -1.52587,-22.9033 -3.23238,-6.39159 -9.74603,-12.75412 -16.57104,-16.18658 -4.43099,-2.22846 -7.3454,-2.8759 -12.80283,-2.84416 -3.71492,0.0216 -5.40253,0.19776 -7.67222,0.80086 -13.778976,3.66128 -27.764057,13.11006 -44.012828,29.73648 -13.320584,13.63019 -22.918803,25.98536 -29.576523,38.07196 -2.682486,4.86985 -6.045357,13.49604 -6.76463,17.35213 l -0.246763,1.32292 H 30.1804 c 7.93236,0 14.568197,2.11792 21.942516,7.00325 3.82238,2.53225 11.266211,9.88923 13.729503,13.56931 2.279314,3.40523 5.121633,9.20917 4.852896,9.90949 -0.109644,0.28572 -1.43835,0.90944 -2.952681,1.38604 -9.969338,3.1376 -20.324303,1.59184 -27.37779,-4.08687 -1.319703,-1.06249 -3.304078,-2.37642 -4.409722,-2.91985 -2.208266,-1.08538 -5.03031,-2.02697 -5.291681,-1.7656 -0.09156,0.0916 0.72333,1.26777 1.810873,2.6138 4.874247,6.03276 12.203095,10.95227 18.65277,12.52072 5.382648,1.30897 13.944563,0.43693 20.475924,-2.08548 15.855649,-6.12346 35.427752,-22.78834 54.495562,-46.40084 l 2.15716,-2.6713 2.99746,0.60686 c 6.29727,1.27491 14.0667,1.19134 20.79347,-0.22368 1.36234,-0.28658 2.55387,-0.44416 2.64785,-0.35018 0.58803,0.58803 -11.19493,16.60717 -18.22309,24.77462 -21.87031,25.41555 -43.388628,41.12034 -63.185416,46.11485 -1.839732,0.46415 -3.458006,1.05918 -3.596166,1.3223 -0.138159,0.26311 -1.147979,2.30402 -2.244045,4.53533 -3.805233,7.74652 -9.079708,14.86824 -17.080448,23.06242 -13.516292,13.84308 -25.678457,20.90005 -38.645484,22.42365 -3.5631557,0.41867 -4.8407596,0.41583 -8.643056,-0.0192 z M -0.18240403,191.91111 C -2.2496999,186.18423 -3.562922,179.59097 -4.328038,171.09722 -4.8995321,164.75292 -4.5926513,143.39627 -3.8377944,136.97987 -0.94210035,112.36602 7.028427,99.113641 21.072503,95.562192 c 4.148413,-1.049046 10.279772,-0.836143 14.151078,0.491376 3.580528,1.227807 6.563236,3.025175 9.356655,5.638282 2.416213,2.26025 6.05935,7.41478 7.021758,9.93481 l 0.563659,1.47592 -3.460952,3.35849 c -1.903523,1.84716 -4.196806,4.06127 -5.096185,4.92023 -0.899378,0.85897 -3.31331,3.32824 -5.364294,5.48728 -2.050984,2.15903 -3.815441,3.83914 -3.921017,3.73356 -0.105575,-0.10558 -0.191956,-0.53247 -0.191956,-0.94866 0,-1.38011 -1.447773,-6.32482 -2.496589,-8.52684 -1.108829,-2.32801 -3.081562,-4.3572 -4.235983,-4.3572 -4.8393,0 -9.098792,13.11013 -9.740813,29.98087 l -0.221313,5.81559 -2.183033,3.53302 C 7.583767,168.51165 3.8240829,178.28534 1.0703943,192.96944 l -0.29770163,1.5875 z M 220.75069,176.1945 c -1.26118,-0.27009 -3.72784,-1.20018 -5.48147,-2.06686 -5.23646,-2.58796 -9.19364,-6.73277 -12.41426,-13.00292 l -1.49157,-2.90389 1.13879,-1.01752 c 0.62634,-0.55964 2.96442,-2.64789 5.19574,-4.64057 2.23132,-1.99268 5.81322,-5.42417 7.95978,-7.62554 l 3.90284,-4.00248 0.89628,3.72152 c 1.12157,4.65698 2.51884,7.80879 4.06275,9.16437 2.31871,2.03584 4.39127,0.9739 6.73859,-3.45274 2.75938,-5.20373 4.59369,-14.29766 5.41325,-26.83712 l 0.37661,-5.76231 1.57063,-2.65662 c 5.98602,-10.12492 10.99138,-22.721353 13.74237,-34.583917 0.59744,-2.576228 1.10838,-4.122748 1.2679,-3.837701 1.73649,3.102933 4.13814,13.171782 4.93181,20.676464 0.6803,6.432744 0.56867,25.719234 -0.19195,33.161114 -2.76428,27.0459 -10.47873,41.20148 -24.69297,45.31021 -3.63082,1.04952 -8.99788,1.19756 -12.92512,0.35651 z"
       id="path1" /></g></svg>
