<svg width="1224" height="1295" viewBox="0 0 1224 1295" fill="none" xmlns="http://www.w3.org/2000/svg">
<g clip-path="url(#clip0_130_1264)">
<path d="M146.077 1293.1C122.818 1290.44 92.7881 1278.15 72.6823 1263.05C49.0509 1245.31 25.704 1218.06 14.7584 1195.43C-13.6462 1136.72 -0.935838 1070.74 51.9072 1002.59C77.9832 968.963 114.979 933.522 143.764 914.597L152.744 908.693V893.683C152.744 851.955 166.99 805.414 194.705 756.592C202.262 743.281 210.39 730.732 227.391 706.125C231.471 700.22 246.858 680.22 255.241 669.926C281.574 637.59 331.109 586.21 358.623 562.695C401.343 526.184 450.398 496.076 486.744 484.06L498.744 480.093L505.873 468.343C535.956 418.76 571.958 373.967 622.019 323.838C691.575 254.188 755.735 212.059 816.61 196.065L825.143 193.823L830.272 182.153C842.363 154.646 858.534 130.706 886.501 98.9108C933.641 45.319 987.385 10.2215 1035.03 1.91226C1049.44 -0.599292 1074.87 -0.643832 1087.74 1.81993C1120.18 8.02585 1146.05 22.6144 1174.2 50.5808C1198.96 75.1688 1212.85 97.8827 1220.29 125.926C1223.35 137.458 1223.85 142.05 1223.95 159.926C1224.03 172.625 1223.37 184.19 1222.24 189.926C1217.4 214.412 1204.6 244.247 1188.18 269.259C1164.96 304.656 1123.35 348.178 1088.54 373.502L1079.41 380.14V393.298C1079.41 433.25 1054.58 509.505 1027.14 553.843C988.408 616.425 905.613 705.739 844.151 751.24C806.506 779.11 772.028 798.122 740.077 808.629C708.64 818.968 670.988 822.602 643.292 817.971C601.036 810.905 566.797 793.615 531.521 761.527C489.499 723.304 465.413 675.114 461.402 621.235L460.556 609.878L468.983 603.844C491.134 587.986 509.92 578.278 529.359 572.645C543.547 568.533 549.352 568.212 548.392 571.592C536.181 614.545 537.141 642.458 551.827 671.433C560.19 687.933 580.27 709.882 598.438 722.382C644.665 754.187 701.524 747.243 770.744 701.34C804.969 678.643 842.408 645.759 879.804 605.548C939.604 541.245 974.885 488.695 991.893 438.592C1004.1 402.62 1003.56 366.671 990.404 340.592C976.71 313.443 948.291 286.756 920.972 275.392C905.055 268.771 904.482 269.244 912.853 282.094C919.612 292.468 936.523 308.778 948.661 316.63C958.878 323.24 963.538 328.499 970.484 341.259C976.716 352.707 980.399 364.418 982.118 378.252C983.508 389.441 982.682 410.123 980.717 413.302C979.246 415.683 953.258 412.745 938.416 408.519C923.451 404.259 900.057 392.592 887.349 383.052C855.479 359.127 829.894 324.686 820.643 293.259C819.024 287.759 817.504 283.028 817.265 282.746C815.783 281.001 787.653 296.213 767.691 309.554C729.24 335.251 679.525 381.15 637.948 429.338C617.847 452.635 600.548 474.963 601.774 476.03C602.308 476.495 608.089 478.51 614.623 480.509C644.481 489.646 670.788 505.444 698.622 530.953C741.48 570.231 765.953 620.135 767.698 671.81L768.077 683.029L754.827 692.164C739.353 702.833 719.153 712.989 704.077 717.681C693.25 721.05 680.744 723.47 680.744 722.196C680.744 721.811 682.298 715.658 684.197 708.523C692.253 678.256 690.031 644.898 678.43 621.959C666.213 597.802 641.594 573.755 615.799 560.782C599.052 552.359 588.037 549.912 567.411 550.032C553.37 550.114 546.992 550.779 538.413 553.059C486.335 566.897 433.478 602.609 372.065 665.449C321.72 716.964 285.443 763.661 260.28 809.343C250.142 827.748 237.432 860.351 234.713 874.926L233.78 879.926H248.478C278.459 879.926 303.539 887.93 331.411 906.395C345.857 915.965 373.992 943.771 383.302 957.68C391.916 970.55 402.659 992.487 401.643 995.133C401.229 996.213 396.207 998.571 390.484 1000.37C352.804 1012.23 313.667 1006.39 287.008 984.926C282.021 980.91 274.521 975.944 270.342 973.89C261.996 969.788 251.33 966.229 250.342 967.217C249.996 967.563 253.076 972.008 257.186 977.096C275.608 999.897 303.308 1018.49 327.685 1024.42C348.028 1029.37 380.388 1026.07 405.074 1016.54C465.001 993.392 538.974 930.407 611.041 841.163L619.194 831.066L630.523 833.36C654.324 838.179 683.689 837.863 709.113 832.515C714.262 831.432 718.765 830.836 719.12 831.191C721.343 833.414 676.809 893.958 650.246 924.828C567.586 1020.89 486.257 1080.24 411.435 1099.12C404.482 1100.87 398.365 1103.12 397.843 1104.12C397.321 1105.11 393.504 1112.83 389.362 1121.26C374.98 1150.54 355.045 1177.45 324.806 1208.42C273.72 1260.74 227.753 1287.42 178.744 1293.17C165.277 1294.76 160.448 1294.75 146.077 1293.1ZM133.721 859.926C125.908 838.281 120.944 813.361 118.053 781.259C115.893 757.28 117.053 676.562 119.906 652.311C130.85 559.283 160.975 509.195 214.055 495.772C229.734 491.807 252.907 492.612 267.539 497.629C281.072 502.27 292.345 509.063 302.903 518.939C312.035 527.482 325.804 546.964 329.442 556.488L331.572 562.067L318.491 574.76C311.297 581.742 302.629 590.11 299.23 593.356C295.831 596.603 286.707 605.935 278.956 614.096C271.204 622.256 264.535 628.606 264.136 628.207C263.737 627.808 263.411 626.194 263.411 624.621C263.411 619.405 257.939 600.716 253.975 592.394C249.784 583.595 242.328 575.926 237.965 575.926C219.674 575.926 203.575 625.476 201.149 689.239L200.312 711.219L192.062 724.572C163.074 771.487 148.864 808.427 138.456 863.926L137.331 869.926L133.721 859.926ZM968.744 800.524C963.977 799.503 954.654 795.988 948.026 792.713C928.235 782.931 913.279 767.266 901.106 743.568L895.469 732.592L899.773 728.747C902.14 726.631 910.977 718.739 919.411 711.207C927.844 703.676 941.382 690.707 949.495 682.386L964.246 667.259L967.633 681.325C971.872 698.926 977.153 710.838 982.988 715.961C991.752 723.656 999.585 719.642 1008.46 702.912C1018.89 683.244 1025.82 648.873 1028.92 601.48L1030.34 579.701L1036.28 569.661C1058.9 531.393 1077.82 483.785 1088.22 438.95C1090.47 429.213 1092.41 423.368 1093.01 424.445C1099.57 436.173 1108.65 474.228 1111.65 502.592C1114.22 526.905 1113.8 599.799 1110.92 627.926C1100.47 730.146 1071.32 783.648 1017.59 799.177C1003.87 803.144 983.587 803.703 968.744 800.524Z" fill="white"/>
</g>
<defs>
<clipPath id="clip0_130_1264">
<rect width="1223.96" height="1294.35" fill="white"/>
</clipPath>
</defs>
</svg>
